<?xml version="1.0" encoding="UTF-8"?>
<mxfile host="app.diagrams.net" modified="2022-06-28T10:13:59.445Z" agent="5.0 (X11; Linux x86_64) AppleWebKit/537.36 (KHTML, like Gecko) Chrome/102.0.0.0 Safari/537.36" etag="9WOc9738Q4oXDHNSNZNw" version="20.0.3" pages="2">
  <diagram id="muk2Ml2dPY9K4aPHocLS" name="Page-1">
    <mxGraphModel dx="784" dy="727" grid="1" gridSize="10" guides="1" tooltips="1" connect="1" arrows="1" fold="1" page="1" pageScale="1" pageWidth="827" pageHeight="1169" math="0" shadow="0">
      <root>
        <mxCell id="0" />
        <mxCell id="1" parent="0" />
        <mxCell id="8abx4ZhncSc0iB3lg3zN-1" value="&lt;font style=&quot;font-size: 20px;&quot;&gt;-2&lt;/font&gt;" style="text;html=1;strokeColor=none;fillColor=none;align=center;verticalAlign=middle;whiteSpace=wrap;rounded=0;dashed=1;fontSize=20;" vertex="1" parent="1">
          <mxGeometry x="90" y="530" width="60" height="30" as="geometry" />
        </mxCell>
        <mxCell id="8abx4ZhncSc0iB3lg3zN-2" value="&lt;font style=&quot;font-size: 20px;&quot;&gt;-1&lt;/font&gt;" style="text;html=1;strokeColor=none;fillColor=none;align=center;verticalAlign=middle;whiteSpace=wrap;rounded=0;dashed=1;fontSize=20;" vertex="1" parent="1">
          <mxGeometry x="170" y="530" width="60" height="30" as="geometry" />
        </mxCell>
        <mxCell id="8abx4ZhncSc0iB3lg3zN-3" value="&lt;font style=&quot;font-size: 20px;&quot;&gt;0&lt;br style=&quot;font-size: 20px;&quot;&gt;&lt;/font&gt;" style="text;html=1;strokeColor=none;fillColor=none;align=center;verticalAlign=middle;whiteSpace=wrap;rounded=0;dashed=1;fontSize=20;" vertex="1" parent="1">
          <mxGeometry x="250" y="530" width="60" height="30" as="geometry" />
        </mxCell>
        <mxCell id="8abx4ZhncSc0iB3lg3zN-4" value="&lt;font style=&quot;font-size: 20px;&quot;&gt;1&lt;br style=&quot;font-size: 20px;&quot;&gt;&lt;/font&gt;" style="text;html=1;strokeColor=none;fillColor=none;align=center;verticalAlign=middle;whiteSpace=wrap;rounded=0;dashed=1;fontSize=20;" vertex="1" parent="1">
          <mxGeometry x="330" y="530" width="60" height="30" as="geometry" />
        </mxCell>
        <mxCell id="8abx4ZhncSc0iB3lg3zN-5" value="&lt;font style=&quot;font-size: 20px;&quot;&gt;2&lt;br style=&quot;font-size: 20px;&quot;&gt;&lt;/font&gt;" style="text;html=1;strokeColor=none;fillColor=none;align=center;verticalAlign=middle;whiteSpace=wrap;rounded=0;dashed=1;fontSize=20;" vertex="1" parent="1">
          <mxGeometry x="410" y="530" width="60" height="30" as="geometry" />
        </mxCell>
        <mxCell id="8abx4ZhncSc0iB3lg3zN-6" value="&lt;font style=&quot;font-size: 20px;&quot;&gt;3&lt;br style=&quot;font-size: 20px;&quot;&gt;&lt;/font&gt;" style="text;html=1;strokeColor=none;fillColor=none;align=center;verticalAlign=middle;whiteSpace=wrap;rounded=0;dashed=1;fontSize=20;" vertex="1" parent="1">
          <mxGeometry x="490" y="530" width="60" height="30" as="geometry" />
        </mxCell>
        <mxCell id="8abx4ZhncSc0iB3lg3zN-7" value="&lt;font style=&quot;font-size: 20px;&quot;&gt;4&lt;br style=&quot;font-size: 20px;&quot;&gt;&lt;/font&gt;" style="text;html=1;strokeColor=none;fillColor=none;align=center;verticalAlign=middle;whiteSpace=wrap;rounded=0;dashed=1;fontSize=20;" vertex="1" parent="1">
          <mxGeometry x="570" y="530" width="60" height="30" as="geometry" />
        </mxCell>
        <mxCell id="8abx4ZhncSc0iB3lg3zN-8" value="&lt;font style=&quot;font-size: 20px;&quot;&gt;5&lt;br style=&quot;font-size: 20px;&quot;&gt;&lt;/font&gt;" style="text;html=1;strokeColor=none;fillColor=none;align=center;verticalAlign=middle;whiteSpace=wrap;rounded=0;dashed=1;fontSize=20;" vertex="1" parent="1">
          <mxGeometry x="650" y="530" width="60" height="30" as="geometry" />
        </mxCell>
        <mxCell id="8abx4ZhncSc0iB3lg3zN-9" value="&lt;font style=&quot;font-size: 20px;&quot;&gt;-2&lt;/font&gt;" style="text;html=1;strokeColor=none;fillColor=none;align=center;verticalAlign=middle;whiteSpace=wrap;rounded=0;dashed=1;fontSize=20;" vertex="1" parent="1">
          <mxGeometry x="90" y="690" width="60" height="30" as="geometry" />
        </mxCell>
        <mxCell id="8abx4ZhncSc0iB3lg3zN-10" value="&lt;font style=&quot;font-size: 20px;&quot;&gt;-1&lt;/font&gt;" style="text;html=1;strokeColor=none;fillColor=none;align=center;verticalAlign=middle;whiteSpace=wrap;rounded=0;dashed=1;fontSize=20;" vertex="1" parent="1">
          <mxGeometry x="170" y="690" width="60" height="30" as="geometry" />
        </mxCell>
        <mxCell id="8abx4ZhncSc0iB3lg3zN-11" value="&lt;font style=&quot;font-size: 20px;&quot;&gt;0&lt;br style=&quot;font-size: 20px;&quot;&gt;&lt;/font&gt;" style="text;html=1;strokeColor=none;fillColor=none;align=center;verticalAlign=middle;whiteSpace=wrap;rounded=0;dashed=1;fontSize=20;" vertex="1" parent="1">
          <mxGeometry x="250" y="690" width="60" height="30" as="geometry" />
        </mxCell>
        <mxCell id="8abx4ZhncSc0iB3lg3zN-12" value="&lt;font style=&quot;font-size: 20px;&quot;&gt;1&lt;br style=&quot;font-size: 20px;&quot;&gt;&lt;/font&gt;" style="text;html=1;strokeColor=none;fillColor=none;align=center;verticalAlign=middle;whiteSpace=wrap;rounded=0;dashed=1;fontSize=20;" vertex="1" parent="1">
          <mxGeometry x="330" y="690" width="60" height="30" as="geometry" />
        </mxCell>
        <mxCell id="8abx4ZhncSc0iB3lg3zN-13" value="&lt;font style=&quot;font-size: 20px;&quot;&gt;2&lt;br style=&quot;font-size: 20px;&quot;&gt;&lt;/font&gt;" style="text;html=1;strokeColor=none;fillColor=none;align=center;verticalAlign=middle;whiteSpace=wrap;rounded=0;dashed=1;fontSize=20;" vertex="1" parent="1">
          <mxGeometry x="410" y="690" width="60" height="30" as="geometry" />
        </mxCell>
        <mxCell id="8abx4ZhncSc0iB3lg3zN-14" value="&lt;font style=&quot;font-size: 20px;&quot;&gt;3&lt;br style=&quot;font-size: 20px;&quot;&gt;&lt;/font&gt;" style="text;html=1;strokeColor=none;fillColor=none;align=center;verticalAlign=middle;whiteSpace=wrap;rounded=0;dashed=1;fontSize=20;" vertex="1" parent="1">
          <mxGeometry x="490" y="690" width="60" height="30" as="geometry" />
        </mxCell>
        <mxCell id="8abx4ZhncSc0iB3lg3zN-15" value="&lt;font style=&quot;font-size: 20px;&quot;&gt;4&lt;br style=&quot;font-size: 20px;&quot;&gt;&lt;/font&gt;" style="text;html=1;strokeColor=none;fillColor=none;align=center;verticalAlign=middle;whiteSpace=wrap;rounded=0;dashed=1;fontSize=20;" vertex="1" parent="1">
          <mxGeometry x="570" y="690" width="60" height="30" as="geometry" />
        </mxCell>
        <mxCell id="8abx4ZhncSc0iB3lg3zN-16" value="&lt;font style=&quot;font-size: 20px;&quot;&gt;5&lt;br style=&quot;font-size: 20px;&quot;&gt;&lt;/font&gt;" style="text;html=1;strokeColor=none;fillColor=none;align=center;verticalAlign=middle;whiteSpace=wrap;rounded=0;dashed=1;fontSize=20;" vertex="1" parent="1">
          <mxGeometry x="650" y="690" width="60" height="30" as="geometry" />
        </mxCell>
        <mxCell id="lJDvshpD5pf1S4PeU1PS-1" value="start" style="" parent="0" />
        <mxCell id="lJDvshpD5pf1S4PeU1PS-2" value="" style="whiteSpace=wrap;html=1;aspect=fixed;strokeWidth=2;fillColor=#fff2cc;strokeColor=#d6b656;" vertex="1" parent="lJDvshpD5pf1S4PeU1PS-1">
          <mxGeometry x="160" y="440" width="80" height="80" as="geometry" />
        </mxCell>
        <mxCell id="lJDvshpD5pf1S4PeU1PS-3" value="" style="whiteSpace=wrap;html=1;aspect=fixed;strokeWidth=2;fillColor=#dae8fc;strokeColor=#6c8ebf;" vertex="1" parent="lJDvshpD5pf1S4PeU1PS-1">
          <mxGeometry x="160" y="360" width="80" height="80" as="geometry" />
        </mxCell>
        <mxCell id="lJDvshpD5pf1S4PeU1PS-4" value="" style="whiteSpace=wrap;html=1;aspect=fixed;strokeWidth=2;fillColor=#e1d5e7;strokeColor=#9673a6;" vertex="1" parent="lJDvshpD5pf1S4PeU1PS-1">
          <mxGeometry x="480" y="440" width="80" height="80" as="geometry" />
        </mxCell>
        <mxCell id="lJDvshpD5pf1S4PeU1PS-5" value="" style="whiteSpace=wrap;html=1;aspect=fixed;strokeWidth=2;fillColor=#d5e8d4;strokeColor=#82b366;" vertex="1" parent="lJDvshpD5pf1S4PeU1PS-1">
          <mxGeometry x="480" y="360" width="80" height="80" as="geometry" />
        </mxCell>
        <mxCell id="lJDvshpD5pf1S4PeU1PS-6" value="" style="whiteSpace=wrap;html=1;aspect=fixed;strokeWidth=2;fillColor=#ffcccc;strokeColor=#9E493F;" vertex="1" parent="lJDvshpD5pf1S4PeU1PS-1">
          <mxGeometry x="480" y="280" width="80" height="80" as="geometry" />
        </mxCell>
        <mxCell id="lJDvshpD5pf1S4PeU1PS-7" value="" style="whiteSpace=wrap;html=1;aspect=fixed;strokeWidth=2;fillColor=#cdeb8b;strokeColor=#20910F;" vertex="1" parent="lJDvshpD5pf1S4PeU1PS-1">
          <mxGeometry x="480" y="200" width="80" height="80" as="geometry" />
        </mxCell>
        <mxCell id="lJDvshpD5pf1S4PeU1PS-8" value="" style="whiteSpace=wrap;html=1;aspect=fixed;strokeWidth=2;fillColor=#ffff88;strokeColor=#ABA730;" vertex="1" parent="lJDvshpD5pf1S4PeU1PS-1">
          <mxGeometry x="560" y="440" width="80" height="80" as="geometry" />
        </mxCell>
        <mxCell id="lJDvshpD5pf1S4PeU1PS-9" value="" style="whiteSpace=wrap;html=1;aspect=fixed;strokeWidth=2;fillColor=#fff2cc;strokeColor=#d6b656;" vertex="1" parent="lJDvshpD5pf1S4PeU1PS-1">
          <mxGeometry x="160" y="600" width="80" height="80" as="geometry" />
        </mxCell>
        <mxCell id="lJDvshpD5pf1S4PeU1PS-10" value="" style="whiteSpace=wrap;html=1;aspect=fixed;strokeWidth=2;fillColor=#dae8fc;strokeColor=#6c8ebf;" vertex="1" parent="lJDvshpD5pf1S4PeU1PS-1">
          <mxGeometry x="80" y="600" width="80" height="80" as="geometry" />
        </mxCell>
        <mxCell id="lJDvshpD5pf1S4PeU1PS-11" value="" style="whiteSpace=wrap;html=1;aspect=fixed;strokeWidth=2;fillColor=#e1d5e7;strokeColor=#9673a6;" vertex="1" parent="lJDvshpD5pf1S4PeU1PS-1">
          <mxGeometry x="480" y="600" width="80" height="80" as="geometry" />
        </mxCell>
        <mxCell id="lJDvshpD5pf1S4PeU1PS-12" value="" style="whiteSpace=wrap;html=1;aspect=fixed;strokeWidth=2;fillColor=#d5e8d4;strokeColor=#82b366;" vertex="1" parent="lJDvshpD5pf1S4PeU1PS-1">
          <mxGeometry x="560" y="600" width="80" height="80" as="geometry" />
        </mxCell>
        <mxCell id="lJDvshpD5pf1S4PeU1PS-13" value="" style="whiteSpace=wrap;html=1;aspect=fixed;strokeWidth=2;fillColor=#ffcccc;strokeColor=#9E493F;" vertex="1" parent="lJDvshpD5pf1S4PeU1PS-1">
          <mxGeometry x="400" y="600" width="80" height="80" as="geometry" />
        </mxCell>
        <mxCell id="lJDvshpD5pf1S4PeU1PS-14" value="" style="whiteSpace=wrap;html=1;aspect=fixed;strokeWidth=2;fillColor=#cdeb8b;strokeColor=#20910F;" vertex="1" parent="lJDvshpD5pf1S4PeU1PS-1">
          <mxGeometry x="320" y="600" width="80" height="80" as="geometry" />
        </mxCell>
        <mxCell id="lJDvshpD5pf1S4PeU1PS-15" value="" style="whiteSpace=wrap;html=1;aspect=fixed;strokeWidth=2;fillColor=#ffff88;strokeColor=#ABA730;" vertex="1" parent="lJDvshpD5pf1S4PeU1PS-1">
          <mxGeometry x="640" y="600" width="80" height="80" as="geometry" />
        </mxCell>
        <mxCell id="lJDvshpD5pf1S4PeU1PS-16" value="" style="endArrow=none;html=1;rounded=0;strokeWidth=2;" edge="1" parent="lJDvshpD5pf1S4PeU1PS-1">
          <mxGeometry width="50" height="50" relative="1" as="geometry">
            <mxPoint x="40" y="680" as="sourcePoint" />
            <mxPoint x="760" y="680" as="targetPoint" />
          </mxGeometry>
        </mxCell>
        <mxCell id="lJDvshpD5pf1S4PeU1PS-17" value="floor" parent="0" />
        <mxCell id="lJDvshpD5pf1S4PeU1PS-18" value="" style="endArrow=none;html=1;rounded=0;strokeWidth=2;" edge="1" parent="lJDvshpD5pf1S4PeU1PS-17">
          <mxGeometry width="50" height="50" relative="1" as="geometry">
            <mxPoint x="40" y="520" as="sourcePoint" />
            <mxPoint x="760" y="520" as="targetPoint" />
          </mxGeometry>
        </mxCell>
      </root>
    </mxGraphModel>
  </diagram>
  <diagram name="merged" id="6Nm53tD1u2h0o_0Qd_rG">
    <mxGraphModel dx="784" dy="727" grid="1" gridSize="10" guides="0" tooltips="1" connect="0" arrows="1" fold="1" page="0" pageScale="1" pageWidth="827" pageHeight="1169" math="0" shadow="0">
      <root>
        <mxCell id="ry3t8b6UmpUiV6I6QLPa-0" />
        <mxCell id="ry3t8b6UmpUiV6I6QLPa-1" value="start" style="" parent="ry3t8b6UmpUiV6I6QLPa-0" />
        <mxCell id="ry3t8b6UmpUiV6I6QLPa-2" value="" style="whiteSpace=wrap;html=1;aspect=fixed;strokeWidth=2;fillColor=#fff2cc;strokeColor=#d6b656;" parent="ry3t8b6UmpUiV6I6QLPa-1" vertex="1">
          <mxGeometry x="160" y="440" width="80" height="80" as="geometry" />
        </mxCell>
        <mxCell id="ry3t8b6UmpUiV6I6QLPa-3" value="" style="whiteSpace=wrap;html=1;aspect=fixed;strokeWidth=2;fillColor=#dae8fc;strokeColor=#6c8ebf;" parent="ry3t8b6UmpUiV6I6QLPa-1" vertex="1">
          <mxGeometry x="160" y="360" width="80" height="80" as="geometry" />
        </mxCell>
        <mxCell id="ry3t8b6UmpUiV6I6QLPa-4" value="" style="whiteSpace=wrap;html=1;aspect=fixed;strokeWidth=2;fillColor=#e1d5e7;strokeColor=#9673a6;" parent="ry3t8b6UmpUiV6I6QLPa-1" vertex="1">
          <mxGeometry x="480" y="440" width="80" height="80" as="geometry" />
        </mxCell>
        <mxCell id="ry3t8b6UmpUiV6I6QLPa-5" value="" style="whiteSpace=wrap;html=1;aspect=fixed;strokeWidth=2;fillColor=#d5e8d4;strokeColor=#82b366;" parent="ry3t8b6UmpUiV6I6QLPa-1" vertex="1">
          <mxGeometry x="480" y="360" width="80" height="80" as="geometry" />
        </mxCell>
        <mxCell id="ry3t8b6UmpUiV6I6QLPa-6" value="" style="whiteSpace=wrap;html=1;aspect=fixed;strokeWidth=2;fillColor=#ffcccc;strokeColor=#9E493F;" parent="ry3t8b6UmpUiV6I6QLPa-1" vertex="1">
          <mxGeometry x="480" y="280" width="80" height="80" as="geometry" />
        </mxCell>
        <mxCell id="ry3t8b6UmpUiV6I6QLPa-7" value="" style="whiteSpace=wrap;html=1;aspect=fixed;strokeWidth=2;fillColor=#cdeb8b;strokeColor=#20910F;" parent="ry3t8b6UmpUiV6I6QLPa-1" vertex="1">
          <mxGeometry x="480" y="200" width="80" height="80" as="geometry" />
        </mxCell>
        <mxCell id="ry3t8b6UmpUiV6I6QLPa-8" value="" style="whiteSpace=wrap;html=1;aspect=fixed;strokeWidth=2;fillColor=#ffff88;strokeColor=#ABA730;" parent="ry3t8b6UmpUiV6I6QLPa-1" vertex="1">
          <mxGeometry x="560" y="440" width="80" height="80" as="geometry" />
        </mxCell>
        <mxCell id="f7ukijX9q6yRd6nNIqCM-0" value="&lt;font style=&quot;font-size: 20px;&quot;&gt;-2&lt;/font&gt;" style="text;html=1;strokeColor=none;fillColor=none;align=center;verticalAlign=middle;whiteSpace=wrap;rounded=0;dashed=1;fontSize=20;" vertex="1" parent="ry3t8b6UmpUiV6I6QLPa-1">
          <mxGeometry x="90" y="530" width="60" height="30" as="geometry" />
        </mxCell>
        <mxCell id="f7ukijX9q6yRd6nNIqCM-1" value="&lt;font style=&quot;font-size: 20px;&quot;&gt;-1&lt;/font&gt;" style="text;html=1;strokeColor=none;fillColor=none;align=center;verticalAlign=middle;whiteSpace=wrap;rounded=0;dashed=1;fontSize=20;" vertex="1" parent="ry3t8b6UmpUiV6I6QLPa-1">
          <mxGeometry x="170" y="530" width="60" height="30" as="geometry" />
        </mxCell>
        <mxCell id="f7ukijX9q6yRd6nNIqCM-2" value="&lt;font style=&quot;font-size: 20px;&quot;&gt;0&lt;br style=&quot;font-size: 20px;&quot;&gt;&lt;/font&gt;" style="text;html=1;strokeColor=none;fillColor=none;align=center;verticalAlign=middle;whiteSpace=wrap;rounded=0;dashed=1;fontSize=20;" vertex="1" parent="ry3t8b6UmpUiV6I6QLPa-1">
          <mxGeometry x="250" y="530" width="60" height="30" as="geometry" />
        </mxCell>
        <mxCell id="f7ukijX9q6yRd6nNIqCM-3" value="&lt;font style=&quot;font-size: 20px;&quot;&gt;1&lt;br style=&quot;font-size: 20px;&quot;&gt;&lt;/font&gt;" style="text;html=1;strokeColor=none;fillColor=none;align=center;verticalAlign=middle;whiteSpace=wrap;rounded=0;dashed=1;fontSize=20;" vertex="1" parent="ry3t8b6UmpUiV6I6QLPa-1">
          <mxGeometry x="330" y="530" width="60" height="30" as="geometry" />
        </mxCell>
        <mxCell id="f7ukijX9q6yRd6nNIqCM-4" value="&lt;font style=&quot;font-size: 20px;&quot;&gt;2&lt;br style=&quot;font-size: 20px;&quot;&gt;&lt;/font&gt;" style="text;html=1;strokeColor=none;fillColor=none;align=center;verticalAlign=middle;whiteSpace=wrap;rounded=0;dashed=1;fontSize=20;" vertex="1" parent="ry3t8b6UmpUiV6I6QLPa-1">
          <mxGeometry x="410" y="530" width="60" height="30" as="geometry" />
        </mxCell>
        <mxCell id="f7ukijX9q6yRd6nNIqCM-5" value="&lt;font style=&quot;font-size: 20px;&quot;&gt;3&lt;br style=&quot;font-size: 20px;&quot;&gt;&lt;/font&gt;" style="text;html=1;strokeColor=none;fillColor=none;align=center;verticalAlign=middle;whiteSpace=wrap;rounded=0;dashed=1;fontSize=20;" vertex="1" parent="ry3t8b6UmpUiV6I6QLPa-1">
          <mxGeometry x="490" y="530" width="60" height="30" as="geometry" />
        </mxCell>
        <mxCell id="f7ukijX9q6yRd6nNIqCM-6" value="&lt;font style=&quot;font-size: 20px;&quot;&gt;4&lt;br style=&quot;font-size: 20px;&quot;&gt;&lt;/font&gt;" style="text;html=1;strokeColor=none;fillColor=none;align=center;verticalAlign=middle;whiteSpace=wrap;rounded=0;dashed=1;fontSize=20;" vertex="1" parent="ry3t8b6UmpUiV6I6QLPa-1">
          <mxGeometry x="570" y="530" width="60" height="30" as="geometry" />
        </mxCell>
        <mxCell id="f7ukijX9q6yRd6nNIqCM-7" value="&lt;font style=&quot;font-size: 20px;&quot;&gt;5&lt;br style=&quot;font-size: 20px;&quot;&gt;&lt;/font&gt;" style="text;html=1;strokeColor=none;fillColor=none;align=center;verticalAlign=middle;whiteSpace=wrap;rounded=0;dashed=1;fontSize=20;" vertex="1" parent="ry3t8b6UmpUiV6I6QLPa-1">
          <mxGeometry x="650" y="530" width="60" height="30" as="geometry" />
        </mxCell>
        <mxCell id="ry3t8b6UmpUiV6I6QLPa-17" value="end" parent="ry3t8b6UmpUiV6I6QLPa-0" />
        <mxCell id="ry3t8b6UmpUiV6I6QLPa-18" value="" style="whiteSpace=wrap;html=1;aspect=fixed;strokeWidth=2;fillColor=#fff2cc;strokeColor=#d6b656;" parent="ry3t8b6UmpUiV6I6QLPa-17" vertex="1">
          <mxGeometry x="160" y="440" width="80" height="80" as="geometry" />
        </mxCell>
        <mxCell id="ry3t8b6UmpUiV6I6QLPa-19" value="" style="whiteSpace=wrap;html=1;aspect=fixed;strokeWidth=2;fillColor=#dae8fc;strokeColor=#6c8ebf;opacity=40;dashed=1;" parent="ry3t8b6UmpUiV6I6QLPa-17" vertex="1">
          <mxGeometry x="80" y="440" width="80" height="80" as="geometry" />
        </mxCell>
        <mxCell id="ry3t8b6UmpUiV6I6QLPa-20" value="" style="whiteSpace=wrap;html=1;aspect=fixed;strokeWidth=2;fillColor=#e1d5e7;strokeColor=#9673a6;" parent="ry3t8b6UmpUiV6I6QLPa-17" vertex="1">
          <mxGeometry x="480" y="440" width="80" height="80" as="geometry" />
        </mxCell>
        <mxCell id="ry3t8b6UmpUiV6I6QLPa-21" value="" style="whiteSpace=wrap;html=1;aspect=fixed;strokeWidth=2;fillColor=#ffcccc;strokeColor=#9E493F;opacity=40;dashed=1;" parent="ry3t8b6UmpUiV6I6QLPa-17" vertex="1">
          <mxGeometry x="400" y="440" width="80" height="80" as="geometry" />
        </mxCell>
        <mxCell id="ry3t8b6UmpUiV6I6QLPa-22" value="" style="whiteSpace=wrap;html=1;aspect=fixed;strokeWidth=2;fillColor=#cdeb8b;strokeColor=#20910F;opacity=40;dashed=1;" parent="ry3t8b6UmpUiV6I6QLPa-17" vertex="1">
          <mxGeometry x="320" y="440" width="80" height="80" as="geometry" />
        </mxCell>
        <mxCell id="ry3t8b6UmpUiV6I6QLPa-23" value="" style="whiteSpace=wrap;html=1;aspect=fixed;strokeWidth=2;fillColor=#ffff88;strokeColor=#ABA730;opacity=40;dashed=1;" parent="ry3t8b6UmpUiV6I6QLPa-17" vertex="1">
          <mxGeometry x="640" y="440" width="80" height="80" as="geometry" />
        </mxCell>
        <mxCell id="ry3t8b6UmpUiV6I6QLPa-25" value="arrows" parent="ry3t8b6UmpUiV6I6QLPa-0" />
        <mxCell id="ry3t8b6UmpUiV6I6QLPa-26" style="edgeStyle=orthogonalEdgeStyle;rounded=0;orthogonalLoop=1;jettySize=auto;html=1;strokeWidth=2;" parent="ry3t8b6UmpUiV6I6QLPa-25" edge="1">
          <mxGeometry relative="1" as="geometry">
            <mxPoint x="120" y="480" as="targetPoint" />
            <mxPoint x="160" y="400" as="sourcePoint" />
            <Array as="points">
              <mxPoint x="120" y="400" />
            </Array>
          </mxGeometry>
        </mxCell>
        <mxCell id="ry3t8b6UmpUiV6I6QLPa-27" style="edgeStyle=orthogonalEdgeStyle;rounded=0;orthogonalLoop=1;jettySize=auto;html=1;strokeWidth=2;" parent="ry3t8b6UmpUiV6I6QLPa-25" edge="1">
          <mxGeometry relative="1" as="geometry">
            <mxPoint x="481" y="240.02857142857135" as="sourcePoint" />
            <mxPoint x="360" y="480" as="targetPoint" />
          </mxGeometry>
        </mxCell>
        <mxCell id="ry3t8b6UmpUiV6I6QLPa-28" style="edgeStyle=orthogonalEdgeStyle;rounded=0;orthogonalLoop=1;jettySize=auto;html=1;strokeWidth=2;" parent="ry3t8b6UmpUiV6I6QLPa-25" source="ry3t8b6UmpUiV6I6QLPa-6" edge="1">
          <mxGeometry relative="1" as="geometry">
            <mxPoint x="440" y="480" as="targetPoint" />
            <Array as="points">
              <mxPoint x="440" y="320" />
            </Array>
          </mxGeometry>
        </mxCell>
        <mxCell id="ry3t8b6UmpUiV6I6QLPa-29" style="edgeStyle=orthogonalEdgeStyle;rounded=0;orthogonalLoop=1;jettySize=auto;html=1;strokeWidth=2;" parent="ry3t8b6UmpUiV6I6QLPa-25" source="ry3t8b6UmpUiV6I6QLPa-5" edge="1">
          <mxGeometry relative="1" as="geometry">
            <mxPoint x="600" y="480" as="targetPoint" />
            <Array as="points">
              <mxPoint x="600" y="400" />
            </Array>
          </mxGeometry>
        </mxCell>
        <mxCell id="ry3t8b6UmpUiV6I6QLPa-30" value="" style="endArrow=classic;startArrow=none;html=1;rounded=0;strokeWidth=2;startFill=0;" parent="ry3t8b6UmpUiV6I6QLPa-25" edge="1">
          <mxGeometry width="50" height="50" relative="1" as="geometry">
            <mxPoint x="640" y="480" as="sourcePoint" />
            <mxPoint x="680" y="480" as="targetPoint" />
            <Array as="points">
              <mxPoint x="680" y="480" />
            </Array>
          </mxGeometry>
        </mxCell>
        <mxCell id="ry3t8b6UmpUiV6I6QLPa-31" value="floor" parent="ry3t8b6UmpUiV6I6QLPa-0" />
        <mxCell id="ry3t8b6UmpUiV6I6QLPa-32" value="" style="endArrow=none;html=1;rounded=0;strokeWidth=2;" parent="ry3t8b6UmpUiV6I6QLPa-31" edge="1">
          <mxGeometry width="50" height="50" relative="1" as="geometry">
            <mxPoint x="40" y="520" as="sourcePoint" />
            <mxPoint x="760" y="520" as="targetPoint" />
          </mxGeometry>
        </mxCell>
      </root>
    </mxGraphModel>
  </diagram>
</mxfile>
